<svg width="375" height="622" viewBox="0 0 375 622" fill="none" xmlns="http://www.w3.org/2000/svg">
<path d="M0 0H62M0 0L343.54 341.708M0 0V94M62 0L375 311M62 0L0 63M62 0V311M62 0H93.5M62 621L0 559M62 621L312.248 372.75M62 621V311.496M62 621H93.5M62 621H31M0 621L375 249M0 621H93.5M0 621H31M0 621V528M0 621V590M125 0V621M125 0H187M125 0L0 125M125 0L312.751 187M125 0H93.5M125 621L0 497M125 621L375 373M125 621H156M125 621H93.5M187 0V621M187 0H218.5M187 621L0 435M187 621L375 435M187 621H218.5M187 621H156M250 0H312M250 0L0 249M250 0C250 0 268.848 18.8482 280.925 30.9253M250 0V61.7019M250 0H218.5M250 621L0 373M250 621L375 497M250 621V63M250 621H280.925M250 621H218.5M312 0H375V32M312 0L375 63M312 0V62M312 0C312 0 293.061 18.8482 280.925 30.9253M312 621L375 559M312 621V63.496M312 621L31.4514 341.8M312 621H280.925M312 621H343.813M375 621L0 249M375 621H343.813M375 621V590M0 63H250M0 63L312.248 372.75M0 63V32M0 63V94M375 1L312 63.496M375 1H343.813M375 1V32M375 63L0 435M375 63H312M375 63V32M375 63V94M0 125H375M0 125L375 497M0 125V94M0 125V156M375 125L0 497M375 125L312 62M375 125V94M375 125V156M0 187L375 559M0 187L187.5 1M0 187H312.751M0 187V156M0 187V218M375 187L281.25 94M375 187H312.751M375 187L343.813 217.938M375 187V156M375 187V218M0 249H375M0 249V218M0 249V280M375 249L343.813 217.938M375 249V218M375 249V280M0 311H0.502415M0 311V280M0 311V342M375 311H62M375 311V280M375 311V342M0 373H312.5M0 373L31.4514 341.8M0 373V342M0 373V404M375 373H312.5M375 373L343.54 341.708M375 373V342M375 373V404M0 435H375M0 435V404M0 435V466M375 435L312.5 373M375 435V404M375 435V466M0 497H375M0 497V466M0 497V528M375 497V466M375 497V528M0 559H375M0 559L343.813 217.938M0 559V528M0 559V590M375 559V528M375 559V590M187.5 1L250 63M187.5 1H280.925M187.5 1H156M0 310.5L250 61.7019M0 310.5L0.502415 311M0 310.5V218M0 310.5V342M375 310.5L343.54 341.708M375 310.5V280M375 310.5V342M250 61.7019V63M250 61.7019C250 61.7019 268.848 42.9443 280.925 30.9253M250 63H312M250 63L281.25 94M312 63V62M312 63V63.496M312 62C312 62 293.061 43.0607 280.925 30.9253M280.925 30.9253V621M280.925 30.9253V1M281.25 94L312 63.496M281.25 94L62 311.496M312.751 187L343.813 217.938M312.5 373L312.248 372.75M343.54 341.708L312.248 372.75M62 311.496V311M62 311.496L31.4514 341.8M62 311H0.502415M0.502415 311L31.4514 341.8M280.925 621H343.813M280.925 621H218.5M280.925 1H343.813M343.813 1V621M218.5 0V621M218.5 621H156M156 621V1M156 621H93.5M156 1H31M93.5 0V621M31 621V1M31 1H0V32M0 32H375M375 32V94M375 94H0M375 94V156M0 94V218M0 156H375M375 156V280M375 218H0M0 280H375M375 342H0M375 342V466M0 342V404M375 404H0M0 404V528M0 466H375M375 466V590M375 528H0M0 590H375" stroke="url(#paint0_linear_1445_5056)" stroke-opacity="0.08"/>
<defs>
<linearGradient id="paint0_linear_1445_5056" x1="354.5" y1="-69" x2="48.5" y2="146" gradientUnits="userSpaceOnUse">
<stop/>
<stop offset="1" stop-color="#666666" stop-opacity="0"/>
</linearGradient>
</defs>
</svg>
